<?xml version="1.0" encoding="utf-8"?>
<!-- Generator: Adobe Illustrator 26.0.1, SVG Export Plug-In . SVG Version: 6.00 Build 0)  -->
<svg version="1.1" id="Layer_1" xmlns="http://www.w3.org/2000/svg" xmlns:xlink="http://www.w3.org/1999/xlink" x="0px" y="0px"
	 viewBox="0 0 1600 1600" style="enable-background:new 0 0 1600 1600;" xml:space="preserve">
<style type="text/css">
	.st0{fill:#FAE3FF;}
	.st1{fill:#FFFFFF;stroke:#1B2939;stroke-width:1.3;stroke-linecap:round;stroke-miterlimit:10;}
	.st2{fill:#1B2939;}
	.st3{fill:none;stroke:#1B2939;stroke-width:1.3;stroke-linecap:round;stroke-miterlimit:10;}
	.st4{fill:none;stroke:#FFFFFF;stroke-width:1.3;stroke-linecap:round;stroke-miterlimit:10;}
	.st5{fill:#FFFFFF;}
	.st6{fill:#BB8CFF;}
	.st7{fill:none;stroke:#BB8CFF;stroke-width:1.3;stroke-miterlimit:10;}
	.st8{fill:none;stroke:#BB8CFF;stroke-width:1.3;stroke-linecap:round;stroke-miterlimit:10;}
</style>
<g id="Asset">
	<g>
		<path class="st0" d="M206.99,332.73c6.95,46.53,57.88,61.94,83.06,25.1c0.48-0.7,0.95-1.41,1.43-2.13
			c30.5-46.54,78.48-5.83,83.54-74.83c5.05-69-76.42-118-134.08-60.32C210.04,251.46,201.61,296.66,206.99,332.73z"/>
		<ellipse class="st0" cx="181.67" cy="209.38" rx="30.72" ry="30.38"/>
	</g>
	<g>
		<path class="st0" d="M90.32,960.08c0,0-35.38-50.06-68.09-25.37c-32.71,24.7,62.08,60.74,60.08,106.8c-2,46.06,31.37-2,31.37-2
			L90.32,960.08z"/>
		<path class="st1" d="M97.56,1078.87c0,0,4.53-81.58-39.28-155.6c-43.81-74.03,24.17-83.09,54.39-21.15
			c30.21,61.94,15.11,167.69,15.11,167.69L97.56,1078.87z"/>
		<path class="st1" d="M81.47,904.52c0,0,37.75,58.7,32.22,135"/>
		<path class="st2" d="M58.07,1142.47h92.29v-98.89c0-8.3-6.73-15.03-15.03-15.03H73.1c-8.3,0-15.03,6.73-15.03,15.03V1142.47z"/>
	</g>
	<g>
		<g>
			<g>
				<polygon class="st2" points="255.81,1200.72 239.78,1200.72 239.78,1073.37 270.74,1073.37 				"/>
				<path class="st0" d="M171.77,848.22l-27.94-105.45c-15.96-60.24,29.46-119.26,91.78-119.26H1127
					c64.88,0,109.88,64.68,87.33,125.51l-46.63,125.78v131.55H189.72c0,0-3.72-48.37-5.81-82.71
					C182.35,898.17,178.31,872.9,171.77,848.22z"/>
				<path class="st0" d="M1210.5,1082.5H200.16c-6.75,0-12.21-5.47-12.21-12.21v-76.43H1210.5V1082.5z"/>
			</g>
			<g>
				<polygon class="st2" points="1315.51,1202.37 1330.12,1202.37 1330.12,1075.01 1301.89,1075.01 				"/>
				<path class="st0" d="M1392.87,847.47l25.48-105.45c14.56-60.24-26.87-119.26-83.7-119.26H521.76
					c-59.17,0-100.2,64.68-79.64,125.51l42.52,125.78v131.55h891.86c0,0,3.39-48.37,5.3-82.71
					C1383.23,897.41,1386.91,872.14,1392.87,847.47z"/>
				<path class="st0" d="M444.88,1084.14h920.84c6.44,0,11.66-5.22,11.66-11.66V995.5H444.88V1084.14z"/>
			</g>
		</g>
		<path class="st3" d="M1246.5,802.38c0,0,64.57-39.59,74.75-107.75"/>
		<path class="st3" d="M302.77,798.1c0,0-61.11-40.74-71.3-108.9"/>
	</g>
	<line class="st3" x1="1590.74" y1="1109.14" x2="11.67" y2="1109.14"/>
	<g>
		<ellipse class="st0" cx="1081.83" cy="1339.28" rx="486.28" ry="48.06"/>
		<path class="st4" d="M793.81,1336.96c0,10.99,128.96,19.89,288.03,19.89c159.08,0,288.03-8.91,288.03-19.89
			c0-10.99-128.96-19.89-288.03-19.89C922.77,1317.07,793.81,1325.98,793.81,1336.96z"/>
	</g>
	<g>
		<path class="st4" d="M937.52,1274.16c0,0,2.36,54.17,42.4,73.8"/>
		<g>
			<path class="st1" d="M1462,868.48c13.76-10.79,41.29-8.93,55.79,8.55c8.95,10.78,14.91,29.63,11.28,43.19l23.04,43.08
				c0,0-34.36,15.34-60.45,9.54c0,0,2.73-11.36-2.5-21.55c-3.58,1.18-7.19,1.38-10.43-0.24c-12.65-6.32-16.37-22.69-16.37-22.69
				s-6.32,2.98-7.81,1.12c-1.49-1.86,2.6-11.9-0.37-19.34C1451.21,902.7,1448.23,879.26,1462,868.48z"/>
			<path class="st2" d="M1528.98,928.73c2.95,3.82,8.94,1.64,8.87-3.19c-0.06-3.93,0.4-8.81,1.74-14.85
				c5.3-23.87-9.02-66.29-51.44-65.76c-36.94,0.46-42.12,26.65-35.14,35.87c1.51,1.99,4.3,2.46,6.44,1.16
				c6.56-4,24.88-13.39,46.12-9.15c1.96,0.39,3.43,2.01,3.76,3.97C1510.84,885.87,1516.15,912.12,1528.98,928.73z"/>
			<path class="st2" d="M1531.22,930.46c0,0-18.22-5.97-26.96-24.36l-7.48,1.56c0,0-10.29-4.37-10.6-27.13
				c0,0-33.05,11.85-45.53-5.61c-12.47-17.46,29.62-22.76,51.76-20.89C1514.55,855.89,1536.92,911.31,1531.22,930.46z"/>
			<path class="st5" d="M1494.94,909.6c0,0-1.82-13.51,8.87-12.91c10.69,0.6,10.08,22.18,2.02,22.79
				C1497.76,920.08,1494.94,909.6,1494.94,909.6z"/>
			<path class="st1" d="M1498.86,910.72c0,0-2.19-8.36,6.37-7.83"/>
			<path class="st2" d="M1467.4,913.47c0,1.89-0.76,3.41-1.71,3.41c-0.94,0-1.71-1.53-1.71-3.41c0-1.89,0.76-3.41,1.71-3.41
				C1466.64,910.06,1467.4,911.59,1467.4,913.47z"/>
			<path class="st2" d="M1469.96,906.43c0,0-2.97-0.83-6.77-0.36c-3.8,0.48-3.33-4.16,1.78-3.56
				C1470.08,903.1,1471.75,906.55,1469.96,906.43z"/>
			<path class="st2" d="M1488.08,950.46c0,0,15.51-6.74,16.71-4.63c1.2,2.1-10.08,20-12.81,17.36
				C1491.7,962.92,1491.88,954.5,1488.08,950.46z"/>
			<path class="st1" d="M1472.75,937.91c0,0-0.88,3.3-3.96,3.74"/>
		</g>
		<path class="st2" d="M1406.82,1173.16c0,0-124.43-127.04-187.16-119.09c-62.72,7.95-142.75,230.38-142.75,230.38l87.16-11.92
			l56.06-26.63c0,0,84.05,55.77,155.73,51.8C1447.55,1293.72,1406.82,1173.16,1406.82,1173.16z"/>
		<path class="st1" d="M826.77,1210.19c1,3.65,54.83,136.87,54.83,136.87s75.93,0.86,174.63,0.93
			c-3.83-50.21-22.1-89.59-36.26-113.3c-106.03,34.03-153.46-7.37-170.23-18.17C836.25,1207.83,826.38,1208.76,826.77,1210.19z"/>
		<path class="st2" d="M1020.24,1233.68c14.16,23.71,32.17,64.1,35.99,114.31c41.84,0,87.76-0.11,133.76-0.46
			c141.44-1.11,283.35-4.65,308.07-14.23c14.77-5.72,30.61-34.26,45.53-73.46c-55.97-8.3-132.9-45.06-167.66-62.8
			c-13.09,0.54-96.85,4.01-204.89,12.66c-19.1,1.54-17.36-6.65-36.01-1.9C1087.59,1219.86,1051.65,1228.33,1020.24,1233.68z"/>
		<path class="st6" d="M1337.44,1182.15c25.21,28.25,88.62,82.08,209,87.58c34.15-78.32,50.57-168.45,50.03-199.02
			c-1.14-66.2-17.13-114.16-70.99-111.37c-30.76,1.61-98.17,49.71-119.52,121.02c-7.12,23.6-17.77,43.35-28.9,59.15
			C1362.04,1160.95,1346.17,1175.18,1337.44,1182.15z"/>
		<path class="st1" d="M1298.25,966.49c0,0-0.62,26.72,3.66,45.34c0.85,3.71,4.34,6.2,8.12,5.73c0,0,0.62,0.26,1.76,0.77
			c-3.69-14.24-4.33-27.17-4.33-27.17s15.78-5.09,20.87,14.76c5.09,19.85,20.84,31.25,20.78,31.58
			c26.57,15.19,62.44,38.91,93.68,70.62c0,0,41.67-93.7,69.17-91.34c27.5,2.36,47.93,2.36,47.93,2.36s14.14,156.36-75.43,182.29
			c-89.57,25.93-202.6-109.98-203.38-173.62C1280.3,964.16,1298.25,966.49,1298.25,966.49z"/>
		<path class="st1" d="M1532.59,974.84c0,0,71.65-2.89,31.84,136.06c0.63,1.04-69.89-9.49-129.48-35.79
			C1434.95,1075.11,1477.58,974.84,1532.59,974.84z"/>
		<path class="st1" d="M1539.21,975.38c0,0-14.54,73.93-38.78,120.59"/>
		<path class="st2" d="M1316.13,1036.4l10.57-4.94c1.54-0.72,2.21-2.55,1.49-4.1l-42.54-91.05c-0.72-1.54-2.55-2.21-4.1-1.49
			l-10.57,4.94c-1.54,0.72-2.21,2.55-1.49,4.1l42.54,91.05C1312.75,1036.45,1314.59,1037.12,1316.13,1036.4z"/>
		<path class="st1" d="M1459.72,1128.1c0,0-8.94-11.59-16.92-19.97"/>
		<path class="st4" d="M1101.32,1216.54c0,0,103.2-37.79,197.67-29.07"/>
		<path class="st1" d="M910.84,1244.1c0,0,6.84,14.36-1.29,38.76c-8.13,24.4,10.62,64.37,10.62,64.37"/>
		<path class="st2" d="M1454.62,1083.52c0,0,39.8,36.18,94.87,39.8l4.42-12.86C1553.91,1110.46,1492.41,1098,1454.62,1083.52z"/>
	</g>
	<g>
		<g>
			<g>
				<path class="st1" d="M439.42,898.86c0,0-24.98,8.56-59.03,7.77c-34.04-0.79-99.46-8.95-86.42-23.44
					c13.04-14.49,43.47,1.45,78.25-34.78C407,812.18,472.53,878.87,439.42,898.86z"/>
				<path class="st6" d="M576.41,424.78c0,0,3.22,9.07,19.16,14.01c26.36,8.16,6.94,51.55-4.46,53.04c0,0,24.29,20.82-6.94,27.76
					c-31.23,6.94-106.58-16.36-102.12-67.42c4.46-51.06,54.03-63.45,75.35-41.14C557.4,411.02,574.92,408.42,576.41,424.78z"/>
				<path class="st6" d="M490.13,893.94c0,0-0.28,2.77,0.43,0.16c-0.12-0.04-0.28-0.08-0.4-0.16c0.16-0.04,5.3,13.77,5.45,13.73
					c-0.04,0.12-3-0.5-5.06-13.57c68.54,27.94,120.22,33.27,151.5,31.95c11.22-0.48,22.02-3.12,31.63-8.26
					c9.65-5.18,18.03-12.57,24.47-21.78c23.09-33.01,13.76-78.64-20.44-99.99l-52.39-32.7c-8.14-5.06-14.79-12.22-19.29-20.72
					l-10.87-20.64c-22.61,8.97-51.56,11.62-79.35,11.31c-49.26-0.51-94.77-10.24-94.77-10.24l-4.03,10.52
					c-4.74,12.45-14.27,22.54-26.49,27.95l-11.9,5.3c3.6,52.03,38.01,99.87,31.72,118.85c-3.76,11.31,10.26,24.64,6.74,32
					C479.09,919.22,456.56,905.13,490.13,893.94z"/>
				<path class="st3" d="M602.35,807.33c0,0-7.58-6.74-42.1,3.37c-34.52,10.1-52.21,10.1-52.21,10.1"/>
				<path class="st3" d="M407.96,830.95c0,0-13.21-7.24-25.14-17.89"/>
				<path class="st3" d="M409.24,844.16c0,0-16.62-5.11-33.23-17.47"/>
				<path class="st3" d="M399.87,851.83c0,0-15.76-3.41-28.12-13.21"/>
				<path class="st6" d="M438.86,994.54c0,21.53-2.79,40.23-6.72,55.97c5.11,11.98,32.9,64.45,84.83,86.55
					c23.17-42.42,70.38-87.48,76.86-160.86c10.73-121.63-105.54-216.41-105.54-216.41l-128.86,8.01
					C311.5,885,438.86,920.62,438.86,994.54z"/>
				<path class="st5" d="M555.65,507.26c0,0-3.52,25.64,14.09,31.85c17.61,6.21,25.89-19.68,94.25,12.43
					c68.36,32.11,255.83,17.61,279.65,65.25c0,0-51.79-2.07-56.97-2.07c-5.18,0,18.64,24.86,4.14,25.89
					c-14.5,1.04-8.29-11.39-35.22-14.5c-26.93-3.11-158.47,14.5-235.12-5.18c0,0,7.25,20.72-12.43,44.54
					c-19.68,23.82-12.88,56.48-12.88,56.48s-83.54,29.61-174.12,1.07c0,0-27.3-191.21,38.99-188.11c0,0,41.63,6.44,49.63-5.12
					c8-11.55,14.67-50.22,14.67-50.22L555.65,507.26z"/>
				<path class="st5" d="M474.69,611.72c0,0-80.69,48.4-40.67,92.17c40.02,43.77,143.82,91.29,152.57,167.58
					c0,0-17.93,8.33-22.98-3.56c-17.82-41.92-66.03-51.06-124.13-62.51c-58.1-11.44-110.93-32.57-79.23-114.45
					c31.69-81.87,51.94-150.54,90.68-155.83L474.69,611.72z"/>
				<path class="st1" d="M360.24,690.84c31.03-80.15,54.57-164.2,103.95-155.93c0,0,36.14,7.12,44.14-4.43
					c8-11.55,16.44-56.15,16.44-56.15l29.52,27.77c0,0-2.06,30.83,15.55,37.04s24.44-19.03,92.8,13.08
					c68.36,32.11,246.24,23.13,270.06,70.77c0,0-10.26,0.52-20.2-0.29c-8.23-0.67-16.61-2.03-20.89,0.7
					c-4.36,2.79,26.63,29.35,12.18,27.74c-24.36-2.71-22.61-21.24-49.54-24.35c-26.93-3.11-158.47,14.5-235.12-5.18
					c0,0,7.25,20.71-12.43,44.54c-19.68,23.82-12.88,56.48-12.88,56.48s-55.44,19.64-124.96,11.5
					c46.1,35.51,108.43,76.43,117.26,133.74c0.32,2.1-0.85,4.16-2.86,4.83c-4.94,1.65-14.22,3.28-19.65-4.92
					c-25.16-37.97-66.03-51.06-124.13-62.51C381.37,793.85,328.55,772.72,360.24,690.84z"/>
				<path class="st1" d="M468.86,734.14c0,0-25.11-22.04-47.8-11.12"/>
				<path class="st1" d="M450.99,626.05c0,0-12.25,71.71,5.82,99.04"/>
				<path class="st1" d="M567.85,840.39c0,0,13.34,19.87,13.05,32.32"/>
				<path class="st1" d="M575.56,873.57c0,0-6.82-14.8-17.2-26.95"/>
				<path class="st1" d="M569.83,539.15c0,0-11.01,20-32.64,17.6s-32.2-22.11-32.2-22.11"/>
				<path class="st5" d="M559.6,431.37c4.9,8.54,20.88,2.34,19.93,13.64c-0.61,7.29-1.27,3.51-1.08,14.74
					c0.42,24.02-17.62,46.73-37.65,35.45c-20.36-11.47-22.64-26.91-15.6-53.62c2.58-9.8,7.17-11.86,11.11-11.46
					c4.14,0.42,8.23-0.91,10.95-4.05C550,422.94,554.16,421.87,559.6,431.37z"/>
				<path class="st2" d="M573.93,459.15c-0.42,1.8-1.48,3.08-2.37,2.88c-0.89-0.21-1.27-1.83-0.86-3.62
					c0.42-1.8,1.48-3.08,2.37-2.88C573.97,455.73,574.35,457.36,573.93,459.15z"/>
				<path class="st2" d="M550.42,456.66c0.03,1.82-0.69,3.38-1.62,3.49c-0.92,0.11-1.7-1.28-1.73-3.1
					c-0.03-1.82,0.69-3.38,1.62-3.49C549.61,453.46,550.39,454.84,550.42,456.66z"/>
				<path class="st2" d="M570.75,446.6c0,0,4.91,0.76,8.21,3.6C582.27,453.05,576.17,440.32,570.75,446.6z"/>
				<path class="st2" d="M548.86,443.3c0,0-8.3,1.43-11.37,2.57C534.66,446.91,542.93,435.52,548.86,443.3z"/>
				<path class="st5" d="M527.07,451.14c0,0-4.33-7.61-10.63-7.8c-6.3-0.19-5.92,18.94,7.45,18.23
					C537.25,460.87,527.07,451.14,527.07,451.14z"/>
				<path class="st2" d="M523.42,462.31c-0.67,2.88-3.55,4.68-6.44,4.01c-2.88-0.67-4.68-3.55-4.01-6.44
					c0.67-2.89,3.55-4.68,6.44-4.01C522.29,456.54,524.09,459.42,523.42,462.31z"/>
				<path class="st3" d="M522.15,452.65c0,0-0.71-4.95-5.25-5.47"/>
				<path class="st3" d="M580.82,459.14c1.06,6.17-3.08,12.03-9.25,13.09c-6.17,1.06-12.03-3.08-13.09-9.25
					c-1.06-6.17,3.08-12.03,9.25-13.09C573.89,448.83,579.75,452.97,580.82,459.14z"/>
				<path class="st3" d="M555,456.94c1.06,6.17-3.08,12.03-9.25,13.09c-6.17,1.06-12.03-3.08-13.09-9.25
					c-1.06-6.17,3.08-12.03,9.25-13.09C548.08,446.63,553.94,450.77,555,456.94z"/>
				<path class="st1" d="M546.28,474.48c0,0,0.46,4.76,5.97,5.14"/>
				<path class="st1" d="M533.24,454.22c0,0-9.1-12.83-18.25-11.14"/>
				<line class="st1" x1="558.25" y1="458.27" x2="555.04" y2="457.85"/>
				<path class="st7" d="M553.6,420.53c0,0-7.7,20.3-29.93,10.44"/>
				<path class="st7" d="M572.6,419.8c0,0,2.62,10,25.55,15.86c22.92,5.86,25.23,36.03,12.54,39.36"/>
				<path class="st2" d="M556.44,497.44c0,0-12.56,0.44-19.41-6.12c-6.85-6.55-1.12,20.38,18.09,20.38
					C555.13,511.71,555.4,502.5,556.44,497.44z"/>
				<path class="st1" d="M540.31,792.59c0,0-20.9,8.76-26.97,32.36"/>
				<path class="st1" d="M857.66,588.41c-0.4,1.19-13.94,12.35-8.36,37.43"/>
				<path class="st1" d="M421.4,1127.11c10.16,14.48,16.81,29.68,16.81,29.68c23.85,48.68,49.81,63.06,66.08,66.96
					c6.54,1.57,11.79-5.4,8.63-11.33c-14.69-27.49-9.26-50.99,4.05-75.37c-51.93-22.1-79.72-74.57-84.83-86.55
					c-3.93,15.74-9.05,28.5-13.7,38.09C412.39,1101.01,413.46,1115.78,421.4,1127.11z"/>
			</g>
			<path class="st3" d="M591.13,923.13c0,0-4.73-23.19-12.65-45.94"/>
			<path class="st2" d="M450.08,634.72c0,0,3.04,77.5,41.03,100.29l-17.23-0.54c0,0-27.84-3.16-25.75-44.62
				c0,0-1.36-5.59-1.54-17.19C446.33,657.32,449.32,637.53,450.08,634.72z"/>
			<path class="st1" d="M619.13,621.62c0,0-12.6-15.54-11.43-23.32"/>
		</g>
		<g>
			<ellipse class="st4" cx="407.7" cy="834.66" rx="7.93" ry="14.28"/>
			<path class="st4" d="M477.14,1008.73c5.93,5.2,13.07,6.75,15.96,3.45c2.89-3.29,0.43-10.18-5.5-15.38
				c-5.93-5.2-13.07-6.75-15.96-3.45C468.75,996.64,471.22,1003.53,477.14,1008.73z"/>
			<path class="st4" d="M656.04,864.91c5.93,5.2,13.07,6.75,15.96,3.45c2.89-3.29,0.43-10.18-5.5-15.38
				c-5.93-5.2-13.07-6.75-15.96-3.45C647.65,852.83,650.12,859.71,656.04,864.91z"/>
			<path class="st4" d="M494.84,883.17c-6.83,3.94-10.59,10.21-8.4,14.01c2.19,3.79,9.5,3.67,16.33-0.27
				c6.83-3.94,10.59-10.21,8.4-14.01C508.98,879.11,501.67,879.23,494.84,883.17z"/>
			<path class="st4" d="M508.9,1077.02c-6.83,3.94-10.59,10.21-8.4,14.01c2.19,3.79,9.5,3.67,16.33-0.27
				c6.83-3.94,10.59-10.21,8.4-14.01C523.04,1072.96,515.73,1073.08,508.9,1077.02z"/>
			<path class="st4" d="M565.35,949.46c3.18,7.22,9.01,11.63,13.01,9.87c4.01-1.77,4.68-9.05,1.5-16.26
				c-3.18-7.22-9.01-11.63-13.01-9.87C562.84,934.96,562.17,942.24,565.35,949.46z"/>
			<path class="st4" d="M558.21,760.02c-2.91,7.33-1.98,14.58,2.09,16.2c4.07,1.62,9.73-3.01,12.65-10.34
				c2.91-7.33,1.98-14.58-2.09-16.2C566.78,748.06,561.12,752.69,558.21,760.02z"/>
		</g>
		<path class="st6" d="M537.09,555.54c0,0,9.17,0.87,14.27-1.76c0,0,3.14,22.94,7.71,36.57c0.94,2.81-0.52,5.87-3.33,6.8
			c-1.4,0.46-3.11,0.87-5.14,1.09c-2.53,0.27-4.88-1.37-5.59-3.82C542.91,587.24,538.68,571.36,537.09,555.54z"/>
	</g>
	<g>
		<g>
			<g>
				<path class="st6" d="M1167.3,583.01c-50.89-6.98-83.86,4.29-121.14,39.62c-50.61,47.96-81.52,125.19-142.94,133.38
					c0,0,76.48,26.2,107.59,31.11c31.12,4.91,87.01,53.84,192.11,45.16c0,0,11-74.42,14.22-92.91c6.73-38.69-9.12-18.06-9.12-18.06
					s-29.87,48.85-14.61,85.83l44.77-0.42c0,0,71.87-45.33,73.42-94.98c0.72-23.14-32.96-64.35-54.38-88.01
					C1241.92,606.81,1210.94,588.99,1167.3,583.01z"/>
				<path class="st2" d="M704.17,913.07l128.5-3.65l35.55-53.36l10.55-15.88c0,0,56.47,58.04,180,55.29
					c123.49-2.79-26.64-75.39-26.64-75.39S944.4,654.32,836.11,651.64c-84.83-2.15-51.36,115.44-73.67,196.09
					c-0.43,1.5-1.04,2.97-1.82,4.43c-4.36,7.94-14.95,15.99-37.84,30.33C706.11,892.97,704.17,913.07,704.17,913.07z"/>
				<path class="st1" d="M704.17,913.07l128.5-3.65l35.55-53.36c-45.81,3.43-87.51-1.07-107.61-3.9
					c-4.36,7.94-14.95,15.99-37.84,30.33C706.11,892.97,704.17,913.07,704.17,913.07z"/>
				<g>
					<path class="st6" d="M1161.86,534.69c0,0,29.87,8.76,19.98,25.4c-7.68,12.92-20.01-6.55-17.13,4.8
						c2.8,11.04-35.12,12.23-28.43-17.12L1161.86,534.69z"/>
					<path class="st6" d="M1086.58,511.47c0,0-3.42-25.51,20.02-33.46c8.3-2.82,24.05-0.27,37.65,6.63
						c24.79,12.58,42.42,39.62-5.2,75L1086.58,511.47z"/>
					<path class="st5" d="M1106.09,512.16c-8.8-4.42-19.17-5.78-19.67,5.54c-0.32,7.31-1.03,9.09-2.65,20.21
						c-3.48,23.77,13.29,38.35,34.59,29.71c21.65-8.78,25.72-19.07,22.13-46.45c-2.63-20.1-13.66-11.78-13.66-11.78
						S1119.48,518.89,1106.09,512.16z"/>
					<path class="st2" d="M1089.45,526.42c0.18,1.83,1.07,3.25,1.98,3.16c0.91-0.09,1.5-1.65,1.31-3.49
						c-0.18-1.83-1.07-3.25-1.98-3.16C1089.85,523.02,1089.26,524.58,1089.45,526.42z"/>
					<path class="st2" d="M1112.24,528c-0.26,1.8,0.26,3.44,1.16,3.67c0.9,0.22,1.85-1.05,2.11-2.86c0.26-1.8-0.26-3.44-1.16-3.67
						C1113.45,524.92,1112.5,526.2,1112.24,528z"/>
					<path class="st2" d="M1095.71,516.82c0,0-5.28-0.4-8.92,2C1083.16,521.22,1089.22,504.24,1095.71,516.82z"/>
					<path class="st2" d="M1109.69,519.74c0,0,9.37,2.11,11.44,4.31C1123.2,526.24,1117.09,508.64,1109.69,519.74z"/>
					<path class="st5" d="M1135.84,535.92c0,0,5.26-6.99,11.54-6.38c6.28,0.61,3.46,19.54-9.71,17.13
						C1124.5,544.27,1135.84,535.92,1135.84,535.92z"/>
					<path class="st3" d="M1140.53,538.04c0,0,1.34-4.82,5.9-4.76"/>
					<path class="st6" d="M1141.52,531.03c0,0-13.44-5.99-15.62-27.7C1123.71,481.62,1158.32,503.29,1141.52,531.03z"/>
					<path class="st3" d="M1087.51,511.89c-10.88,38.95,0.59,59.8,17.77,58.52"/>
					<path class="st3" d="M1109.41,551.11c0,0-0.76,6.51-6.07,6.68c0,0-8.14,2.88-11.44-7.02L1109.41,551.11z"/>
					<path class="st8" d="M1159.89,534.94c0,0,28.81-6.78,23.27,16.42"/>
				</g>
				<path class="st1" d="M1104.14,570.52c2.44,3.99,10.6,25.47,11.13,30.69c0.23,2.27,5.49,9.73,19.57,3.34
					c16.98-7.71,17.4-22.65,17.4-22.65c-11.91-14.56-12.21-34.62-12.21-34.62"/>
				<path class="st3" d="M1200.65,791.66c0,0-4.88-23.23,15.78-62.58c0,0-4.92-33.45-17.71-44.27"/>
				<path class="st3" d="M1064.92,654.31c0,0-16.72,11.81-13.77,36.4c2.95,24.59-11.81,84.61-42.3,94.44"/>
				<path class="st4" d="M823.46,858.72c0,0-1.14-44.41,27.83-61.44c39.39-23.16,127.78-10.73,127.78-10.73"/>
				<path class="st2" d="M1122.21,563.54c6.29-2.77,2.99,24.21-11.79,22.5l-6.68-16.34
					C1103.73,569.69,1112.19,567.95,1122.21,563.54z"/>
				<path class="st1" d="M769.37,1179.97l160.94,1.18c0,0,3.61-23.6,7.87-54.5c-13.77,1.25-69.31,2.32-116.48-11.84
					c-1.25,16.34-11.9,29.24-22.79,32.36C764.3,1157.05,769.37,1179.97,769.37,1179.97z"/>
				<path class="st2" d="M822.49,857.39l186.86-74.53c0,0,51.11,21.17,68.96,25.6c83.72,20.77,111.62,14.93,111.62,14.93
					s3.28,72.73-70.43,98.98c-79.07,28.15-169.73,10.66-169.73,10.66s2.36,48.28,2.18,64.45c-0.29,24.75-5.52,77.15-11.31,119.53
					c-0.43,3.43-0.89,6.76-1.36,10.01c-13.77,1.25-71.27,1.14-118.44-13.02C821.66,1102.37,822.92,873.3,822.49,857.39z"/>
				<g>
					<path class="st1" d="M1237.41,807.18c0,0-23.51-19.74-36.76-15.52c0,0-26.78,28.49-24.37,50.78
						c2.41,22.28,13.2,49.76,13.2,49.76s0.05,0.32,3.06-0.89c3.01-1.2,10.24-28.91,10.24-28.91s-9.01,24.92-4.19,23.72
						c4.82-1.2,19.85-25.52,19.85-25.52s-1.2,15.66,1.81,16.86s6.62-33.72,10.24-49.98S1237.41,807.18,1237.41,807.18z"/>
					<path class="st1" d="M1190.38,841.02c0,0-3.69,22.76-0.9,51.17"/>
					<path class="st1" d="M1206.39,848.55c0,0-1.06,4.95-3.62,13.85"/>
					<line class="st1" x1="1219.58" y1="849.37" x2="1218.43" y2="860.59"/>
				</g>
			</g>
			<path class="st4" d="M1143.05,822.83c0,0-2.22,52.26-78.95,54.49c-58.1,1.68-113.45,3.02-136.91,3.58
				c-6.53,0.15-11.75,5.44-11.82,11.98c-0.4,40.35-3.51,174.86-26.97,242.43"/>
		</g>
		<path class="st4" d="M877.08,787.52c0,0,2.9-26.28-9.88-50.24"/>
	</g>
	<line class="st3" x1="1594.82" y1="614.47" x2="1594.82" y2="1429.67"/>
</g>
</svg>
