<?xml version="1.0" encoding="utf-8"?>
<!-- Generator: Adobe Illustrator 26.0.1, SVG Export Plug-In . SVG Version: 6.00 Build 0)  -->
<svg version="1.1" id="Layer_1" xmlns="http://www.w3.org/2000/svg" xmlns:xlink="http://www.w3.org/1999/xlink" x="0px" y="0px"
	 viewBox="0 0 1600 1600" style="enable-background:new 0 0 1600 1600;" xml:space="preserve">
<style type="text/css">
	.st0{fill:#FAE3FF;}
	.st1{fill:#FFFFFF;stroke:#1B2939;stroke-width:0.5;stroke-linecap:round;stroke-miterlimit:10;}
	.st2{fill:#1B2939;}
	.st3{fill:none;stroke:#FFFFFF;stroke-width:0.5;stroke-linecap:round;stroke-miterlimit:10;}
	.st4{fill:#BB8CFF;}
	.st5{fill:#FFFFFF;}
	.st6{fill:none;stroke:#1B2939;stroke-width:0.5;stroke-linecap:round;stroke-miterlimit:10;}
	.st7{fill:none;stroke:#BB8CFF;stroke-width:0.5;stroke-linecap:round;stroke-miterlimit:10;}
	.st8{fill:none;stroke:#FFFFFF;stroke-miterlimit:10;}
	.st9{fill:#F7F7F7;stroke:#1B2939;stroke-width:0.5;stroke-linecap:round;stroke-miterlimit:10;}
</style>
<g>
	<path class="st0" d="M936.41,505.09c0,0,116.02-177.16-78.76-280.9C616.13,95.55,164.59,423.71,272.22,707.24
		C379.86,990.76,883.91,659.98,936.41,505.09z"/>
	<path class="st0" d="M584.65,1104.56c0,0-86.88,127.6,51.07,272.13c0,0,60.8-42.73,77.24-147.9
		C729.39,1123.61,760.49,979.66,584.65,1104.56z"/>
	<path class="st1" d="M1222.53,1293.83c0,0,21.5,30.86,52.74,43.78c36.19,14.98,33.7,36.19,33.7,36.19s-141.55,18.12-247.53-5.34
		c0,0-11.47-30.21-32.36-67.69"/>
	<path class="st2" d="M918.56,852.03H745.41l-21.78,249.53l306.2,9.37V963.29C1029.83,901.84,980.01,852.03,918.56,852.03z"/>
	<path class="st2" d="M607.5,551.93h-61.36c-101.05,0-182.97,81.92-182.97,182.97v234.8c0,111.82,90.65,202.47,202.47,202.47h139.4
		c56.58,0,101.61-47.36,98.68-103.87c-4.76-91.76-11.09-227.61-13.27-336.94C788.45,631.7,707.19,551.93,607.5,551.93z"/>
	<path class="st1" d="M731.15,540.64c-52.96-32.15-93.32-11.06-124.35-14.41c-86.86-9.37-154.39-6.1-197.18,126.95
		c-7.08,22.01-22,73.97-18.89,93.11c17.15,105.22,143.72,49.25,143.72,49.25s-68.87,203.62,300.88,70.45
		c0,0-36.12-71.51-55.42-147.04C763.28,653.85,787.99,575.15,731.15,540.64z"/>
	<path class="st3" d="M695.26,630.65c0,0,14.55,24.35,7.9,50.96c-6.65,26.61-22.59,73.94-17.56,101.65"/>
	<path class="st1" d="M641.56,735.52c0,0-107.49-51.6-161.62-25.61"/>
	<path class="st1" d="M537.19,643.65c0,0-18.73,19.97-28.62,58.43"/>
	<path class="st4" d="M642.89,481.22c-88.27,44.28-23.64,6.76-44.76,10.98c-27.92,7.89-67.41-21.75-54.89-38.74
		c15.73-21.35-16.29-7.86-6.44-36.25c1.82-5.23,8.24-7.49,8.24-13.28c-0.05-14.43,6.04-22.32,19.52-32.15
		c25.86-18.82,43.38,3.04,43.38,3.04s2.1-10.04,21.47-8.09c22.87,2.3,22.31,21.49,34.35,28.22c20.39,11.4,5.3,43.29-16.79,58.75
		C633.31,463.27,634.4,476.72,642.89,481.22z"/>
	<path class="st5" d="M627.4,416.7c11.6-7.36,25.82-10.71,28.09,4.94c1.47,10.1,2.7,12.49,6.51,27.7
		c8.15,32.54-13.1,55.12-43.89,46.1c-31.3-9.17-38.38-22.89-37.23-61.42c0.84-28.29,17.33-18.27,17.33-18.27
		S609.74,427.91,627.4,416.7z"/>
	<path class="st2" d="M650.93,436.49c0,2.57-1.03,4.66-2.31,4.66c-1.27,0-2.31-2.09-2.31-4.66c0-2.57,1.03-4.66,2.31-4.66
		C649.89,431.83,650.93,433.91,650.93,436.49z"/>
	<path class="st2" d="M621.07,439.55c0.61,2.47,0.12,4.82-1.1,5.26c-1.22,0.44-2.71-1.21-3.33-3.67c-0.62-2.47-0.12-4.82,1.1-5.26
		S620.45,437.09,621.07,439.55z"/>
	<path class="st5" d="M641.19,496.28c0,0-2.87,15.51,6.61,28.72c0,0,7.66,25.54-0.1,52.11c-2.32,7.93-12.14,10.73-18.47,5.41
		c-13.44-11.32-33.83-31.49-39.46-53.65c0,0,1-40.25-4.17-61.22C585.6,467.66,637.74,493.55,641.19,496.28z"/>
	<path class="st2" d="M641.19,496.28c0,0-14.38,2.96-30.13-4.92c-15.75-7.88,6.22,22.38,31.5,21.14
		C642.56,512.5,640.24,507,641.19,496.28z"/>
	<path class="st2" d="M641.59,422.65c0,0,6.92-0.51,12.31,2.31C659.28,427.78,646.97,412.39,641.59,422.65z"/>
	<path class="st2" d="M616.2,428.29c0,0-6.67,2.56-9.23,5.9C604.41,437.52,605.69,419.57,616.2,428.29z"/>
	<path class="st5" d="M589.4,453.85c0,0-8.29-8.98-16.92-7.25c-8.63,1.73-2.07,27.62,15.88,22.44
		C606.32,463.86,589.4,453.85,589.4,453.85z"/>
	<path class="st6" d="M583.18,457.45c0,0-2.53-6.51-8.87-5.79"/>
	<path class="st4" d="M581.15,446.7c0,0,17.5-9.04,17.5-39.5S553.94,410.52,581.15,446.7z"/>
	<path class="st6" d="M585.94,470.32c0,0,6.6,32.02,3.01,58.03"/>
	<path class="st6" d="M641.45,497.79c0,8.02,3.69,26.65,7.87,29.94"/>
	<path class="st4" d="M698.8,904.39c0,0,14.06-26.63,62.66-43.92c50.92-18.11,107.65-13.42,155.18,12.31
		c51.31,27.77,118.86,84.88,175.91,202.24c83.13,154.59,129.97,217.88,129.97,217.88s-93.67,33.07-197.21,5.36
		c0,0-33.4-49.1-72.84-109.16c-39.56-60.24-85.2-131.52-109.3-175.34C795.05,926.27,698.8,904.39,698.8,904.39z"/>
	<path class="st6" d="M954.64,1196.25c0,0,48.33-139.62,10.74-216.95c-37.59-77.33-195.62-119.8-195.62-119.8"/>
	<path class="st6" d="M974.19,1124.4c0,0,40.26,78.87,117.1,183.29"/>
	<path class="st6" d="M660.57,441.46c5.26,33.03,0.13,55.4-23.91,56.03"/>
	<path class="st6" d="M628.23,471.25c0,0-1.56,7.81,9.37,8.43"/>
	<path class="st1" d="M615.43,780.65c0,0,2.02-36.39,27.29-45.49c0,0,40.22,0.36,71.64-10.37c31.42-10.73,48.28,50.58,48.28,50.58
		s-7.91,8.63-27.23-16.63c-0.43-0.56-1.32-0.16-1.15,0.52l4.63,19.17"/>
	<path class="st1" d="M696.4,752.45c0,0,11.98-11.09,19.77-12.58c7.79-1.5,19.23,18.87,19.23,18.87"/>
	<path class="st1" d="M694.9,762.04c0,0,25.47-10.19,23.97,8.69"/>
	<path class="st6" d="M575.4,524.61c0,0,16.64,29.55,56.38,24.79c39.73-4.75,23.77-25.47,23.77-25.47"/>
	<path class="st7" d="M586.85,364.98c-24.61-3.52-55.84,12.77-39.83,47.22"/>
	<path class="st7" d="M655.1,390.8c0,0,27.49,14.48,27.8,26.59c0.31,12.11-7.22,18.01-7.22,18.01"/>
	<path class="st6" d="M1057.45,1357.9c0,0,129.86,20.86,248.48,6.03"/>
	<path class="st1" d="M830.22,770.97H677.38c-2.5,0-4.53,2.03-4.53,4.53l0,0c0,2.5,2.03,4.53,4.53,4.53h152.84
		c2.5,0,4.53-2.03,4.53-4.53l0,0C834.75,773,832.72,770.97,830.22,770.97z"/>
	<path class="st8" d="M1066.17,1325.75"/>
	<path class="st2" d="M1041.37,1323.12c0,0,61.58-5.19,68.25,40.81c6.67,46.01,0,0,0,0l-52.52-6l-14.21-34.38"/>
	<g>
		<path class="st2" d="M745.06,744.22h414.8c10.84,0,19.62-8.79,19.62-19.62l46.24-259.96c0-10.84-8.79-19.62-19.62-19.62h-414.8
			c-10.84,0-19.62,8.79-19.62,19.62L725.43,724.6C725.43,735.44,734.22,744.22,745.06,744.22z"/>
		<path class="st1" d="M758.19,744.22h414.8c10.84,0,19.62-8.79,19.62-19.62l46.23-259.96c0-10.84-8.79-19.62-19.62-19.62h-414.8
			c-10.84,0-19.62,8.79-19.62,19.62L738.57,724.6C738.57,735.44,747.35,744.22,758.19,744.22z"/>
		<path class="st0" d="M903.11,684.58h155.94c4.07,0,7.38-3.3,7.38-7.38l17.38-97.73c0-4.07-3.3-7.38-7.38-7.38H920.49
			c-4.07,0-7.38,3.3-7.38,7.38l-17.38,97.73C895.73,681.28,899.03,684.58,903.11,684.58z"/>
		<path class="st1" d="M922.32,766.14h91.24l28.23-139.76c1.74-8.52-1.85-15.46-10.39-15.46h-65.38c-8.54,0-15.46,6.92-15.46,15.46
			L922.32,766.14z"/>
		<path class="st2" d="M1032.12,764.97H882.99c-4.43,0-8.02,3.59-8.02,8.02l0,0c0,4.43,3.59,8.02,8.02,8.02h149.13
			c4.43,0,8.02-3.59,8.02-8.02l0,0C1040.14,768.56,1036.55,764.97,1032.12,764.97z"/>
	</g>
	<path class="st6" d="M450.69,1168.9c0,0-36.35,109.06,29.08,213.27c0,0,22.88-44.98,67.86,0c53.04,53.04,2.33,69.39,101.38,140.13
		c0,0,199.13-11.69,157.93-404.29"/>
	<path class="st9" d="M737.49,1304.52c0,0-8.51,27.73,1.38,67.27c0,0,66.99,136.18,144.97,181.21c0,0,20.87-3.29,12.08-102.14
		c-8.79-98.84,19.89-126.01,19.89-126.01"/>
	<path class="st4" d="M530.08,879.08c0,0,56.42-26.91,157.18-25.42c63.08,0.93,157.92,25.52,207.79,64.17
		c40.42,31.32,77.97,78.01,80.88,144.22c3.84,87.3-60.12,262.8-60.12,262.8s-85.05,14.15-178.32-20.33c0,0,4.88-148.73,42.59-224.05
		c3.24-6.48-1.52-14.11-8.77-14.18c-58.13-0.61-246.41-7.57-241.23-72.37C536.21,917.3,530.08,879.08,530.08,879.08z"/>
	<path class="st6" d="M635.67,959.87c0,0,76.9,61.06,209.33,61.45c11.52,0.03,19.54,11.46,15.72,22.33
		c-17.58,50.05-58.44,172.83-74.17,275.03"/>
	<g>
		<path class="st2" d="M643.98,852.03H470.83l-21.78,249.53l306.2,9.37V963.29C755.24,901.84,705.43,852.03,643.98,852.03z"/>
		<g>
			<line class="st3" x1="534.49" y1="850.38" x2="444.57" y2="850.38"/>
			<line class="st3" x1="755.42" y1="1065.89" x2="755.42" y2="1104.32"/>
		</g>
	</g>
	<path class="st6" d="M735.54,1344.15c0,0,70.93,146.85,154.54,200.16"/>
	<path class="st2" d="M736.94,1315.45c0,0,53.84,21.53,28.71,78.36C765.65,1393.81,726.17,1347.75,736.94,1315.45z"/>
	<path class="st2" d="M491.82,806.97h716.66c7.12,0,12.9-5.77,12.9-12.89l0,0c0-7.12-5.77-12.89-12.9-12.89H491.82
		c-7.12,0-12.89,5.77-12.89,12.89l0,0C478.92,801.2,484.69,806.97,491.82,806.97z"/>
	<g>
		<path class="st5" d="M905.33,174.29c38.96,8.77,48.68,18.5,57.45,57.45c0.53,2.36,3.89,2.36,4.42,0
			c8.77-38.96,18.5-48.68,57.45-57.45c2.36-0.53,2.36-3.89,0-4.42c-38.96-8.77-48.68-18.5-57.45-57.45c-0.53-2.36-3.89-2.36-4.42,0
			c-8.77,38.96-18.5,48.68-57.45,57.45C902.96,170.4,902.96,173.76,905.33,174.29z"/>
		<path class="st6" d="M905.33,174.29c38.96,8.77,48.68,18.5,57.45,57.45c0.53,2.36,3.89,2.36,4.42,0
			c8.77-38.96,18.5-48.68,57.45-57.45c2.36-0.53,2.36-3.89,0-4.42c-38.96-8.77-48.68-18.5-57.45-57.45c-0.53-2.36-3.89-2.36-4.42,0
			c-8.77,38.96-18.5,48.68-57.45,57.45C902.96,170.4,902.96,173.76,905.33,174.29z"/>
	</g>
	<circle class="st2" cx="1090.08" cy="293.57" r="26.73"/>
</g>
</svg>
