<?xml version="1.0" encoding="utf-8"?>
<!-- Generator: Adobe Illustrator 26.0.1, SVG Export Plug-In . SVG Version: 6.00 Build 0)  -->
<svg version="1.1" xmlns="http://www.w3.org/2000/svg" xmlns:xlink="http://www.w3.org/1999/xlink" x="0px" y="0px"
	 viewBox="0 0 500 500" style="enable-background:new 0 0 500 500;" xml:space="preserve">
<style type="text/css">
	.st0{display:none;}
	.st1{display:inline;fill:#FFFFFF;}
	.st2{fill:#F4E3FF;}
	.st3{fill:#FFFFFF;stroke:#252D3B;stroke-width:0.5;stroke-linecap:round;stroke-miterlimit:10;}
	.st4{clip-path:url(#SVGID_00000048476591637082361890000003460478411487063172_);}
	.st5{fill:none;stroke:#252D3B;stroke-width:0.5;stroke-linecap:round;stroke-miterlimit:10;}
	.st6{fill:none;stroke:#AF8CFF;stroke-width:0.5;stroke-miterlimit:10;}
	.st7{fill:#AF8CFF;}
	.st8{fill:#252D3B;}
	.st9{fill:#FFFFFF;}
	.st10{fill:none;stroke:#FFFFFF;stroke-miterlimit:10;}
	
		.st11{clip-path:url(#SVGID_00000162352053130632794500000006515346499147059619_);fill:none;stroke:#252D3B;stroke-width:0.5;stroke-linecap:round;stroke-miterlimit:10;}
	.st12{fill:none;stroke:#FFFFFF;stroke-width:0.5;stroke-linecap:round;stroke-miterlimit:10;}
	.st13{fill:#F4E3FF;stroke:#252D3B;stroke-width:0.5;stroke-linecap:round;stroke-miterlimit:10;}
	.st14{fill:none;stroke:#AF8CFF;stroke-width:0.5;stroke-linecap:round;stroke-miterlimit:10;}
	.st15{clip-path:url(#SVGID_00000160156192027727524540000017084927600277146778_);}
	.st16{fill:#252D3B;stroke:#FFFFFF;stroke-miterlimit:10;}
</style>
<g id="BACKGROUND" class="st0">
	<rect y="-0.05" class="st1" width="500" height="500"/>
</g>
<g id="OBJECTS">
	<path class="st2" d="M147.77,74.65c-5.94,6.18-13.55,10.52-21.84,12.72c-44.98,11.92-64.4,63.41-25.68,90.25
		c37.5,25.99,56.61-15.4,96.59-7.24c39.98,8.16,44.32-89.5,4.34-106.64C175.37,52.67,157.32,64.72,147.77,74.65z"/>
	<g>
		<g>
			<g>
				<polyline class="st3" points="195.27,235.23 126.29,235.23 126.29,105.2 373.71,105.2 373.71,172.46 				"/>
				<g>
					<defs>
						<rect id="SVGID_1_" x="134.6" y="134.34" width="239.32" height="100.46"/>
					</defs>
					<clipPath id="SVGID_00000104704415401518605960000014513012923319917202_">
						<use xlink:href="#SVGID_1_"  style="overflow:visible;"/>
					</clipPath>
					<g style="clip-path:url(#SVGID_00000104704415401518605960000014513012923319917202_);">
						<rect x="335.4" y="160.16" class="st2" width="26.89" height="75.49"/>
						<rect x="296.56" y="173.75" class="st2" width="22.41" height="61.9"/>
						<rect x="326.44" y="186.83" class="st2" width="25.89" height="48.82"/>
						<rect x="283.12" y="189.35" class="st2" width="18.92" height="46.3"/>
						<rect x="242.79" y="207.97" class="st2" width="100.57" height="27.68"/>
						<rect x="227.36" y="219.55" class="st2" width="23.9" height="16.1"/>
						<rect x="254.52" y="204.6" class="st2" width="19.79" height="6.29"/>
						<rect x="300.31" y="166.03" class="st2" width="14.7" height="12"/>
						<rect x="335.9" y="139.7" class="st2" width="18.34" height="31.48"/>
						<rect x="305.81" y="148.07" class="st2" width="3.54" height="20.06"/>
						<rect x="355.63" y="174.55" class="st2" width="18.47" height="61.6"/>
						<rect x="196.23" y="231.15" class="st2" width="34.64" height="4.62"/>
						<rect x="213.79" y="225.56" class="st2" width="7.46" height="8.51"/>
					</g>
				</g>
			</g>
			<line class="st5" x1="296.69" y1="189.57" x2="296.69" y2="200.69"/>
			<line class="st5" x1="354.29" y1="158.92" x2="354.29" y2="174.55"/>
			<line class="st5" x1="253.57" y1="207.09" x2="253.57" y2="219.55"/>
		</g>
		<circle class="st2" cx="181.22" cy="160.57" r="7.43"/>
	</g>
	<g>
		<path class="st6" d="M177.63,237.92c3.14,6.06,2.78,9.8-2.75,14.6c-5.53,4.8,0.81,9.76,6.44,10.77"/>
		<path class="st7" d="M196.23,270.39c-8.66,1.66-17.41-3.39-19.98-11.83c-0.45-1.49-0.66-2.89-0.42-3.98
			c1.3-5.85,6.86-5.81,3.82-11.62c-3.53-6.76-4.73-12.15,0.69-16.81c2.1-1.8,1.93-4.63,5.96-6.84c0.96-0.53,1.89-0.44,2.38-0.85
			c6.68-5.62,13.6,2.17,14.72,4.84c0.45,1.07,1.44,1.73,2.55,1.81c1.04,0.07,3.23-0.02,5.9,1.43c2.83,1.53,5.28,4.61,5.75,7.1
			c0.21,1.12,0.91,2.06,1.91,2.61c1.61,0.87,12.85,7.32,11.23,17.06c-1.35,8.12-2.38,12.06-2.38,12.06S207.96,268.14,196.23,270.39z
			"/>
		<path class="st3" d="M202.98,246.7c0,0,16.43-1.67,26.7,8.08c10.27,9.76,11.82,66.53,18.24,71.92c6.42,5.39,14.51,4.15,10.78,5.39
			c-0.77,0.26-101.4-0.51-101.4-0.51s18.36-30.65,13.61-48.78c-5.55-21.19,1.41-26.42,21.06-33.41"/>
		<path class="st8" d="M254.99,429.33c0,0,2.79,5.57,8.62,8.27c5.83,2.71,6.94,6.74,7.35,7.37c0,0-12.76,2.13-31.71,0.34
			c-11.61-1.1-16.45-1.04-16.45-1.04l-4.79-14.57C218.01,429.69,241.79,431.88,254.99,429.33z"/>
		<path class="st8" d="M196.75,434.92l2.69,12.38c0,0-5.55,1.36-10.85,1.58c-7.45,0.31-16.35-0.68-25.68-2.51l5.55-11.8
			L196.75,434.92z"/>
		<path class="st2" d="M228.67,304.41c0,0-1.37,24.64,7.3,52.93c8.67,28.29,19.16,72.1,19.16,72.1s-25.04,12.56-47.86-18.02
			c-1.64-2.2,4.64,20.5,1.42,22.23c-10.89,5.86-39.32,2.56-39.32,2.56s-1.46-115.88,6.36-136.82L228.67,304.41z"/>
		<path class="st9" d="M187.32,228.92c-0.94,2.59-5.64,1.64-4.85,4.7c0.51,1.98,0.52,0.91,1,4.01c1.02,6.64,6.7,9.16,11.69,5.1
			c5.07-4.13,5.33-5.61,2.13-12.63c-1.18-2.58-2.54-2.93-3.61-2.63c-1.12,0.31-2.31,0.14-3.21-0.6
			C189.56,226.14,188.37,226.04,187.32,228.92z"/>
		<path class="st8" d="M184.68,237.25c0.2,0.48,0.55,0.78,0.79,0.68c0.24-0.1,0.26-0.56,0.06-1.04c-0.2-0.48-0.55-0.78-0.79-0.68
			C184.51,236.31,184.48,236.78,184.68,237.25z"/>
		<path class="st8" d="M191.05,235.45c0.08,0.5,0.35,0.9,0.61,0.89c0.26-0.01,0.41-0.43,0.33-0.94c-0.08-0.5-0.35-0.9-0.61-0.88
			C191.12,234.53,190.97,234.95,191.05,235.45z"/>
		<path class="st9" d="M190.95,244.68c0,0,1.74,2.64,1.01,5.82c0,0,6.92,4.16,11.01-3.79c0,0-3.31-7.35-3.99-11.63
			C198.99,235.08,191.38,243.91,190.95,244.68z"/>
		<path class="st8" d="M190.95,244.68c0,0,2.88-0.57,5.18-3.25c2.3-2.68,0.59,4.62-4.17,6.35
			C191.96,247.78,191.96,246.59,190.95,244.68z"/>
		<path class="st8" d="M184.96,233.64c0,0-1.32,0.44-2.09,1.38C182.1,235.97,183.17,232.17,184.96,233.64z"/>
		<path class="st8" d="M190.84,231.7c0,0,2.35,0,3.25,0.17C194.93,232.02,192.11,229.27,190.84,231.7z"/>
		<path class="st9" d="M197.22,232.82c0,0,0.83-2.3,2.56-2.65c1.73-0.35,2.53,4.94-1.19,5.38
			C194.87,235.99,197.22,232.82,197.22,232.82z"/>
		<path class="st8" d="M198.75,235.73c0.32,0.76,1.2,1.12,1.96,0.8c0.76-0.32,1.12-1.2,0.8-1.96c-0.32-0.76-1.2-1.12-1.96-0.8
			C198.79,234.09,198.43,234.96,198.75,235.73z"/>
		<path class="st5" d="M198.65,233.01c0,0-0.04-1.4,1.19-1.76"/>
		<circle class="st5" cx="185.96" cy="237.58" r="3.17"/>
		<path class="st5" d="M189.8,235.75c0,1.75,1.42,3.17,3.17,3.17c1.75,0,3.17-1.42,3.17-3.17c0-1.75-1.42-3.17-3.17-3.17
			C191.22,232.58,189.8,234,189.8,235.75z"/>
		<path class="st5" d="M208.31,377.5c0,0-3.49-18.63-4.87-37.07"/>
		<path class="st3" d="M242.73,328.67c0,0,2.62,2.38,5.82,2.95"/>
		<path class="st3" d="M229.72,324.84c0,0,2.09,5.45,6.82,6.91"/>
		<path class="st3" d="M206.53,246.89c0,0-2,7.17-10.37,9.22c-8.03,1.97-6.84-5.72-6.84-5.72"/>
		<path class="st3" d="M193.03,240.17c0,0,0.1,1.33-1.4,1.7"/>
		<path class="st3" d="M195.66,233.96c0,0,1.9-3.97,4.5-3.93"/>
		<line class="st3" x1="188.96" y1="236.27" x2="189.83" y2="236"/>
		<path class="st6" d="M188.46,225.64c0,0,3.09,5.23,8.74,1.46"/>
		<path class="st5" d="M237.64,364.91c0,0-20.86,21.46,8.77,28.72"/>
		<path class="st6" d="M182.87,222.75c0,0,0,2.22-6.04,4.93c-6.04,2.7-5.24,11.12-1.59,11.44"/>
		<path class="st8" d="M226.93,318.24h18.99c0.69,0,1.2-0.64,1.05-1.32l-0.72-3.07c-0.11-0.49-0.55-0.83-1.05-0.83l-18.27,0V318.24z
			"/>
	</g>
	<g>
		<g>
			<path class="st5" d="M296.47,334.44c0,0,4.63,8.05,4.23,21.75"/>
			<path class="st5" d="M307.6,335.61c0,0,2.42,8.26-0.2,17.52"/>
			<g>
				<path class="st2" d="M312.03,309.24c-19.77,0.88-49.2-78.19-23.29-67.21c7.44,3.15,12.52,10.03,15.99,18.23
					c-1.76,6.05-3.26,13.02-1.42,14.73c1.13,1.05,4.1-0.17,6.87-4.24C314.31,288.57,312.03,309.24,312.03,309.24z"/>
				<path class="st10" d="M290.83,256.15c0,0,12.59,25.17,16.46,48.73"/>
			</g>
			<g>
				<path class="st2" d="M299.58,311.06c-0.48-2.14-18.73-37.62-40.33-31.49C237.66,285.7,302.92,326.01,299.58,311.06z"/>
				<path class="st10" d="M269.8,287.5c0,0,17.1,11.76,25.06,27.2"/>
			</g>
		</g>
		<path class="st5" d="M302.02,254.45c0,0,4.67-14.29,13.74-6.6c11.62,9.86,2.2,49.47,2.2,49.47"/>
	</g>
	<g>
		<path class="st3" d="M50.87,354.59c0,0,11.59-11.15,22.38-2.78c13.5,10.47-14.65,25.3-12.41,49.56"/>
		<path class="st2" d="M24.34,354.4c0,0-7.45-4.47-11.27,1.66c-3.81,6.13-2.65,20.05,6.3,24.02s4.47,12.26,12.09,14.91
			c7.62,2.65,11.93,6.13,11.1,9.11s7.95,1.33,7.95,1.33S45.21,365.33,24.34,354.4z"/>
		<path class="st3" d="M49.18,406.82c-3.1,2.14-0.62-8.01-8.03-13.32c-2.82-2.02-6.27-4.49-5.96-11.3
			c0.62-13.62-12.38-10.52-11.76-20.43c0.62-9.91,6.81-15.48-3.71-27.24c-10.52-11.76-0.87-24.87,14.54-16.38
			c13.21,7.28,18.94,20.97,16.41,38.66C48.82,369.74,63.23,397.13,49.18,406.82z"/>
		<path class="st5" d="M40.87,352.91c0,0,3.52,5.4,1.07,13.64c-2.45,8.23,14.41,21.34,6.5,42.52"/>
		<path class="st3" d="M67.35,423.95H38.6v-17.46c0-2.52,2.04-4.56,4.56-4.56h19.64c2.52,0,4.56,2.04,4.56,4.56V423.95z"/>
	</g>
	<g>
		<path class="st2" d="M472.85,360.72c-23.89,19.11-22.3,43.63-22.3,43.63c-2.55,2.19-4.75,3.6-6.63,4.42
			c-0.67-10.06-0.08-27.02,8.44-43.09c3.85-7.26,9.42-18.67,13.81-27.82c-0.84,3.4,0.01,0.07,0.01,0.07
			C476.69,332.52,496.74,341.61,472.85,360.72z"/>
		<path class="st3" d="M468.24,325.26c-0.42,6.6-2.26,13.02-5.14,18.97c-3.71,7.65-7.75,15.81-10.74,21.45
			c-8.52,16.07-9.11,33.03-8.44,43.09c-1.55,0.68-2.88,0.96-4.04,0.96c-2.74,0-4.47-1.59-5.54-3.33c-1.31-2.12-1.64-4.47-1.64-4.47
			c-13.39-36.5-4.12-90.57,20.72-94.71C466.46,305.05,468.88,315.16,468.24,325.26z"/>
		<path class="st5" d="M466.38,312.01c0,0-10.39,9.37-6.82,12.76c2.47,2.34,8.68-3.36,8.68-3.36"/>
		<path class="st5" d="M426.57,368.21c0,0,3.44,4.28,5.21,2.17c2.03-2.41-4.72-13.98-4.72-13.98"/>
		<path class="st5" d="M452.64,318.75c0,0-21.91,41.29-14.32,83.98"/>
		<path class="st3" d="M457.29,423.95h-28.75V406.1c0-2.3,1.87-4.17,4.17-4.17h20.42c2.3,0,4.17,1.87,4.17,4.17V423.95z"/>
	</g>
	<g>
		<defs>
			<rect id="SVGID_00000080929613674798834170000013656139150771114128_" y="126.74" width="500" height="373.26"/>
		</defs>
		<clipPath id="SVGID_00000012446753990302773090000000645661489310406028_">
			<use xlink:href="#SVGID_00000080929613674798834170000013656139150771114128_"  style="overflow:visible;"/>
		</clipPath>
		
			<line style="clip-path:url(#SVGID_00000012446753990302773090000000645661489310406028_);fill:none;stroke:#252D3B;stroke-width:0.5;stroke-linecap:round;stroke-miterlimit:10;" x1="-15.06" y1="423.93" x2="584.27" y2="423.93"/>
	</g>
	<g>
		<g>
			<path class="st3" d="M266.99,322.26c0,2.02-1.63,3.65-3.65,3.65c-2.02,0-3.65-1.63-3.65-3.65c0-2.02,1.63-3.65,3.65-3.65
				C265.35,318.61,266.99,320.24,266.99,322.26z"/>
			<path class="st3" d="M263.34,324.29c-1.12,0-2.03-0.91-2.03-2.03s0.91-2.03,2.03-2.03c1.12,0,2.03,0.91,2.03,2.03
				S264.46,324.29,263.34,324.29z"/>
		</g>
		<path class="st3" d="M275.8,314.45H265c-0.77,0-1.37,0.69-1.25,1.45l1.47,9.69c0.5,3.28,3.32,5.71,6.64,5.71h10.53L275.8,314.45z"
			/>
	</g>
	<g>
		<path class="st8" d="M348.59,286.12h55.2c9.31,0,16.86,7.55,16.86,16.86v86.61c0,11.47-9.3,20.76-20.76,20.76h-68.62
			c0,0,0.89-73.13,0.47-107.18C331.62,293.78,339.2,286.12,348.59,286.12z"/>
		<path class="st3" d="M405.86,293.73c2.01,3.37,3.84,7.54,5.49,12.67c1.42,4.4,4.41,14.81,3.78,18.65
			c-3.43,21.07-28.78,9.86-28.78,9.86s13.68,37.09-60.38,10.41c0,0,7.88-4.23,11.49-13.16l-32.75-1.41c0,0-0.68-5.44,15.99-10.21
			c9.15-2.61,11.95-5.36,14.79-12.26c1.17-2.84,1.91-5.82,2.38-8.85c0.54-3.48,1.31-6.2,2.38-8.41"/>
		<path class="st7" d="M354.15,350.38c0,0-11.3-5.39-31.48-5.09c-12.64,0.19-31.63,5.11-41.62,12.85
			c-8.1,6.27-15.62,15.62-16.2,28.89c-0.77,17.49,12.32,51.62,12.32,51.62s16.76,3.85,35.44-3.06c0,0-0.98-29.79-8.53-44.88
			c-0.65-1.3,0.3-2.83,1.76-2.84c11.64-0.12,49.36-1.52,48.32-14.5C352.93,358.04,354.15,350.38,354.15,350.38z"/>
		<path class="st5" d="M312.73,435.48c0,0,0.48,3.66,1.51,8.52c1.41,6.65,1.54,10.11,1.54,10.11s-32.73,5.77-53.88,1.37
			c0,0,1.02-4.83,11.66-8.52c4.32-1.5,3.73-7.96,3.73-7.96"/>
		<path class="st5" d="M315.56,451.86c0,0-29.14,5.54-52.5,1.77"/>
		<path class="st12" d="M354.13,301.88c0,0-2.91,4.88-1.58,10.21c1.33,5.33,4.52,14.81,3.52,20.36"/>
		<path class="st3" d="M364.89,322.89c0,0,21.53-10.33,32.37-5.13"/>
		<path class="st3" d="M385.8,304.49c0,0,3.75,4,5.73,11.7"/>
		<polygon class="st8" points="399.17,453.88 403.36,453.88 403.36,404.16 392.88,404.16 		"/>
		<path class="st2" d="M370.12,331.93c0,0-0.4-7.29-5.47-9.11c0,0-8.06,0.07-14.35-2.08c-6.29-2.15-9.67,10.13-9.67,10.13
			s1.59,1.73,5.45-3.33c0.09-0.11,0.26-0.03,0.23,0.11l-0.93,3.84"/>
		<path class="st5" d="M353.91,326.28c0,0-2.4-2.22-3.96-2.52c-1.56-0.3-5.47,5.62-5.47,5.62"/>
		<path class="st5" d="M354.21,328.2c0,0-5.1-2.04-4.8,1.74"/>
		<path class="st3" d="M345.8,436.74c0,0,0.48,3.66,1.51,8.52c1.41,6.65,1.54,10.11,1.54,10.11s-32.73,5.77-53.88,1.37
			c0,0,1.02-4.83,11.66-8.52c4.32-1.5,3.73-7.96,3.73-7.96"/>
		<path class="st7" d="M387.22,351.65c0,0-11.3-5.39-31.48-5.09c-12.64,0.19-31.63,5.11-41.62,12.85
			c-8.1,6.27-15.62,15.62-16.2,28.89c-0.77,17.49,12.32,51.62,12.32,51.62s16.76,3.85,35.44-3.06c0,0-0.98-29.79-8.53-44.88
			c-0.65-1.3,0.3-2.83,1.76-2.84c11.64-0.12,49.36-1.52,48.32-14.5C385.99,359.3,387.22,351.65,387.22,351.65z"/>
		<path class="st5" d="M308.83,437.01c0,0-23.05-46.7-11.21-66.2c11.06-18.21,46.19-23.21,46.19-23.21"/>
		<path class="st5" d="M366.07,367.83c0,0-13.52,10.74-37.05,12.15c-4.72,0.28-7.89,4.95-6.37,9.43
			c3.98,11.78,10.48,32.57,13.2,50.29"/>
		<path class="st5" d="M348.63,453.12c0,0-29.14,5.54-52.5,1.77"/>
		<path class="st8" d="M372.83,343.97h32.96v57.39H357.5V359.3C357.5,350.83,364.36,343.97,372.83,343.97z"/>
		<path class="st8" d="M290.88,438.68c0.4-11.13-16.29-6.93-16.29-6.93s0.78,3.7,1.68,7.06c1.05,3.91,1.27,6.35-2.73,8.15v0
			C273.56,446.95,290.32,454.42,290.88,438.68z"/>
		<path class="st10" d="M289.64,447.03c-0.22,0-6.3-4.91-13.78-4.08"/>
		<path class="st10" d="M274.11,445.96c0,0,6.72-1.05,11.51,3.17"/>
		<path class="st8" d="M305.44,448.62c0,0,5.35,3.82,10.92,1.09c5.57-2.73,5.9-13.32,2.62-15.83c-3.28-2.51-12.01-1.31-12.01-1.31
			s2.08,8.46,2.33,12.36C309.42,447.01,305.44,448.62,305.44,448.62z"/>
		<path class="st10" d="M320.24,449.09c0,0-5.78-4.45-11.34-4.03"/>
		<path class="st10" d="M317.57,451.47c0,0-5.78-4.45-11.34-4.03"/>
		<path class="st5" d="M348.31,302.3c0,0-3.46,21.06-11.47,28.13"/>
		<path class="st7" d="M405.86,293.73c-0.03,0.02-0.05,0.03-0.05,0.03c-39,3.51-65.62-2.27-65.62-2.27
			c0.02-0.16,0.04-0.32,0.06-0.48c1.54-3.21,3.71-5.34,6.7-7.16c10.6-6.44,18.69-2.21,24.9-2.88
			C385.9,279.45,397.43,279.59,405.86,293.73z"/>
		<g>
			<path class="st2" d="M354.79,257.74c-3.13,1.18-6.79,0.18-5.75,3.87c0.67,2.39,0.64,3.04,1.29,6.79
				c1.41,8.03,8.36,10.94,14.3,5.89c6.04-5.13,6.26-8.87,2.19-17.31c-2.98-6.19-5.65-2.34-5.65-2.34S358.68,256.28,354.79,257.74z"
				/>
			<path class="st8" d="M350.96,264.95c0.25,0.57,0.69,0.93,0.97,0.81c0.28-0.13,0.31-0.69,0.05-1.26
				c-0.25-0.57-0.69-0.93-0.97-0.81C350.73,263.81,350.71,264.38,350.96,264.95z"/>
			<path class="st8" d="M357.12,263.07c0.11,0.61,0.45,1.08,0.76,1.06c0.31-0.02,0.48-0.54,0.38-1.14
				c-0.11-0.61-0.45-1.08-0.76-1.06C357.18,261.95,357.01,262.46,357.12,263.07z"/>
			<path class="st2" d="M359.59,276.77c0,0,1.49,2.17,1.55,5.12c0.05,2.68,2.01,4.98,4.68,5.21c0.05,0,0.1,0.01,0.15,0.01
				c2.71,0.2,10.24-1.04,9.3-6.51c0,0-5.24-10.52-6.16-15.68C369.1,264.92,360.09,275.82,359.59,276.77z"/>
			<path class="st8" d="M359.59,276.77c0,0,3.48-0.76,6.2-4.07c2.72-3.3,0.83,5.58-4.9,7.8
				C360.89,280.5,360.87,279.05,359.59,276.77z"/>
			<path class="st8" d="M355.75,260.72c0,0,4.06-0.52,4.53-1.11C360.92,258.82,355.27,256.35,355.75,260.72z"/>
			<path class="st8" d="M352.65,261.66c0,0-3.69,1.76-4.41,1.52C347.27,262.86,350.69,257.72,352.65,261.66z"/>
			<path class="st2" d="M366.89,262.23c0,0,0.95-2.81,3.04-3.28c2.09-0.47,3.19,5.93-1.31,6.55
				C364.13,266.13,366.89,262.23,366.89,262.23z"/>
			<path class="st5" d="M368.63,262.42c0,0-0.08-1.7,1.4-2.16"/>
			<path class="st5" d="M369.29,265.55c0,0,2.76,10.05,6.13,15.46"/>
			<path class="st5" d="M349.88,266.52c2.1,7.85,5.45,12.31,10.84,10.07"/>
			<path class="st5" d="M359.7,271.49c0,0-1.84,1.71-3.12,1.02"/>
			<path class="st8" d="M363.43,252.65c0,0-8.42,8.74-18.22,7.48l1.72-1.62l-2.44-1.67c0,0,2.22-0.03,4.94-1.78
				c2.73-1.75,8.53-6.35,13.35-4.35C367.59,252.71,363.43,252.65,363.43,252.65z"/>
			<path class="st8" d="M361.36,253.76c0,0,1.54,3.61,3.76,4.2c2.22,0.59,2.49,2.75,2.49,2.75s0.99-1.45,1.81-1.75
				c0,0-1.21-10.51-7.77-8.79L361.36,253.76z"/>
		</g>
		<line class="st12" x1="386.98" y1="344.31" x2="401.7" y2="344.31"/>
		<line class="st12" x1="357.66" y1="388.1" x2="357.66" y2="396.17"/>
		<line class="st3" x1="370.12" y1="331.54" x2="357.52" y2="331.54"/>
		<path class="st13" d="M344.76,322.54c0,0-2-2.44-4.72-1.82c-2.72,0.62-5.39,5.24-4.61,5.47c0.56,0.17,2.6-1.11,3.71-1.84
			c0.44-0.29,1.02-0.28,1.45,0.04l1.92,1.42L344.76,322.54z"/>
		<path class="st13" d="M345.71,321.64c0,0-3.46,3.62-4.74,8.15"/>
	</g>
	<g>
		<path class="st3" d="M143.56,436.74c0,0-0.48,3.66-1.51,8.52c-1.41,6.65-1.54,10.11-1.54,10.11s32.73,5.77,53.88,1.37
			c0,0-1.02-4.83-11.66-8.52c-4.32-1.5-3.73-7.96-3.73-7.96"/>
		<path class="st5" d="M140.73,453.12c0,0,29.14,5.54,52.5,1.77"/>
		<path class="st8" d="M142.05,445.26l-1.34,7.93l11.25,1.63C151.96,454.82,148.93,444.8,142.05,445.26"/>
		<path class="st3" d="M240.84,434.72c0,0,4.31,6.18,10.56,8.77c7.25,3,6.75,7.25,6.75,7.25s-28.35,3.63-49.58-1.07
			c0,0-2.3-6.05-6.48-13.56"/>
		<path class="st8" d="M179.95,346.23h-34.68l-4.36,49.98l61.33,1.88v-29.57C202.24,356.21,192.26,346.23,179.95,346.23z"/>
		<path class="st8" d="M137.3,286.12H85.56c-9.31,0-16.86,7.55-16.86,16.86v86.61c0,11.47,9.3,20.76,20.76,20.76h68.62
			c0,0-4.35-73.13-3.93-107.18C154.28,293.78,146.7,286.12,137.3,286.12z"/>
		<path class="st3" d="M142.41,283.85c-10.61-6.44-18.69-2.22-24.91-2.89c-17.4-1.88-30.92-1.22-39.5,25.43
			c-1.42,4.41-4.41,14.82-3.78,18.65c3.43,21.08,28.79,9.87,28.79,9.87S89.33,372,163.39,345.32c0,0-7.35-10.62-11.21-25.75
			C148.85,306.53,153.8,290.77,142.41,283.85z"/>
		<path class="st12" d="M135.22,301.88c0,0,2.91,4.88,1.58,10.21c-1.33,5.33-4.52,14.81-3.52,20.36"/>
		<path class="st3" d="M124.47,322.89c0,0-21.53-10.33-32.37-5.13"/>
		<path class="st3" d="M103.56,304.49c0,0-3.75,4-5.73,11.7"/>
		<path class="st7" d="M124.73,271.95c-17.68,8.87-4.74,1.35-8.96,2.2c-5.59,1.58-13.5-4.36-10.99-7.76
			c3.15-4.28-3.26-1.58-1.29-7.26c0.36-1.05,1.65-1.5,1.65-2.66c-0.01-2.89,1.21-4.47,3.91-6.44c5.18-3.77,8.69,0.61,8.69,0.61
			s0.42-2.01,4.3-1.62c4.58,0.46,4.47,4.3,6.88,5.65c4.08,2.28,1.06,8.67-3.36,11.77C122.81,268.36,123.03,271.05,124.73,271.95z"/>
		<path class="st9" d="M121.63,259.03c2.32-1.48,5.17-2.14,5.63,0.99c0.29,2.02,0.54,2.5,1.3,5.55c1.63,6.52-2.62,11.04-8.79,9.23
			c-6.27-1.84-7.69-4.58-7.46-12.3c0.17-5.67,3.47-3.66,3.47-3.66S118.09,261.27,121.63,259.03z"/>
		<path class="st8" d="M126.34,262.99c0,0.52-0.21,0.93-0.46,0.93c-0.26,0-0.46-0.42-0.46-0.93s0.21-0.93,0.46-0.93
			C126.14,262.06,126.34,262.48,126.34,262.99z"/>
		<path class="st8" d="M120.36,263.61c0.12,0.49,0.02,0.97-0.22,1.05c-0.24,0.09-0.54-0.24-0.67-0.74
			c-0.12-0.49-0.02-0.97,0.22-1.05C119.94,262.78,120.24,263.11,120.36,263.61z"/>
		<path class="st9" d="M124.39,274.97c0,0-0.58,3.11,1.32,5.75c0,0,1.53,5.12-0.02,10.44c-0.46,1.59-2.43,2.15-3.7,1.08
			c-2.69-2.27-6.78-6.31-7.9-10.75c0,0,0.2-8.06-0.84-12.26C113.26,269.24,123.7,274.42,124.39,274.97z"/>
		<path class="st8" d="M124.39,274.97c0,0-2.88,0.59-6.04-0.98c-3.15-1.58,1.25,4.48,6.31,4.23
			C124.67,278.22,124.2,277.12,124.39,274.97z"/>
		<path class="st8" d="M124.47,260.22c0,0,1.39-0.1,2.47,0.46C128.02,261.25,125.55,258.17,124.47,260.22z"/>
		<path class="st8" d="M119.39,261.35c0,0-1.34,0.51-1.85,1.18C117.02,263.2,117.28,259.6,119.39,261.35z"/>
		<path class="st9" d="M114.02,266.47c0,0-1.66-1.8-3.39-1.45c-1.73,0.35-0.42,5.53,3.18,4.5
			C117.41,268.48,114.02,266.47,114.02,266.47z"/>
		<path class="st5" d="M112.77,267.19c0,0-0.51-1.3-1.78-1.16"/>
		<path class="st7" d="M112.37,265.04c0,0,3.51-1.81,3.51-7.91C115.87,251.03,106.92,257.79,112.37,265.04z"/>
		<path class="st5" d="M113.32,269.77c0,0,1.32,6.41,0.6,11.62"/>
		<path class="st5" d="M124.44,275.27c0,1.61,0.74,5.34,1.58,6"/>
		<polygon class="st8" points="90.18,453.88 85.99,453.88 85.99,404.16 96.47,404.16 		"/>
		<path class="st7" d="M102.14,351.65c0,0,11.3-5.39,31.48-5.09c12.64,0.19,31.63,5.11,41.62,12.85c8.1,6.27,15.62,15.62,16.2,28.89
			c0.77,17.49-12.04,52.64-12.04,52.64s-17.04,2.83-35.72-4.07c0,0,0.98-29.79,8.53-44.88c0.65-1.3-0.3-2.83-1.76-2.84
			c-11.64-0.12-49.36-1.52-48.32-14.5C103.36,359.3,102.14,351.65,102.14,351.65z"/>
		<path class="st7" d="M135.93,356.72c0,0,5.5-10.42,27.7-11.59c0,0,29.4,0.99,51.17,45.76c16.65,30.96,26.03,43.64,26.03,43.64
			s-18.76,6.62-39.5,1.07c0,0-6.69-9.83-14.59-21.87c-7.92-12.07-17.07-26.34-21.89-35.12C155.21,361.1,135.93,356.72,135.93,356.72
			z"/>
		<path class="st5" d="M187.18,415.18c0,0,9.68-27.97,2.15-43.46c-7.53-15.49-41.52-23.45-41.52-23.45"/>
		<path class="st5" d="M123.29,367.83c0,0,15.4,12.23,41.93,12.31c2.31,0.01,3.91,2.3,3.15,4.47
			c-3.52,10.03-11.71,34.62-14.86,55.09"/>
		<path class="st5" d="M191.09,400.78c0,0,8.06,15.8,23.46,36.71"/>
		<path class="st5" d="M128.27,263.99c1.05,6.62,0.03,11.1-4.79,11.22"/>
		<path class="st5" d="M121.79,269.96c0,0-0.31,1.56,1.88,1.69"/>
		<path class="st3" d="M119.23,331.93c0,0,0.4-7.29,5.47-9.11c0,0,8.06,0.07,14.35-2.08c6.29-2.15,9.67,10.13,9.67,10.13
			s-1.59,1.73-5.45-3.33c-0.09-0.11-0.26-0.03-0.23,0.11l0.93,3.84"/>
		<path class="st3" d="M135.45,326.28c0,0,2.4-2.22,3.96-2.52c1.56-0.3,3.85,3.78,3.85,3.78"/>
		<path class="st3" d="M135.15,328.2c0,0,5.1-2.04,4.8,1.74"/>
		<path class="st7" d="M120.94,305.87c3.42,3.42,8.59,3.79,11.55,0.84c2.96-2.96,2.58-8.13-0.84-11.55
			c-3.42-3.42-8.59-3.79-11.55-0.84C117.14,297.28,117.52,302.45,120.94,305.87z"/>
		<path class="st3" d="M122.42,296.29c0,2.29-2.1,4.14-4.69,4.14c-2.59,0-4.69-1.86-4.69-4.14c0-2.29,2.1-4.14,4.69-4.14
			C120.32,292.14,122.42,294,122.42,296.29z"/>
		<path class="st5" d="M111.21,280.64c0,0,3.33,5.92,11.29,4.97c7.96-0.95,4.76-5.1,4.76-5.1"/>
		<path class="st14" d="M113.51,248.67c-4.93-0.7-11.19,2.56-7.98,9.46"/>
		<path class="st14" d="M128.54,254.79c0,0,2.93,1.65,2.99,4.07c0.06,2.43-1.74,3.79-1.74,3.79"/>
		<path class="st5" d="M207.77,447.56c0,0,26.01,4.18,49.77,1.21"/>
		<path class="st3" d="M162.25,329.99h-30.61c-0.5,0-0.91,0.41-0.91,0.91l0,0c0,0.5,0.41,0.91,0.91,0.91h30.61
			c0.5,0,0.91-0.41,0.91-0.91l0,0C163.16,330.4,162.76,329.99,162.25,329.99z"/>
		<path class="st8" d="M124.95,346.23H90.27l-4.36,49.98l61.33,1.88v-29.57C147.24,356.21,137.26,346.23,124.95,346.23z"/>
		<path class="st10" d="M209.52,441.12"/>
		<line class="st12" x1="103.02" y1="345.9" x2="85.01" y2="345.9"/>
		<line class="st12" x1="147.27" y1="389.06" x2="147.27" y2="396.76"/>
		<path class="st8" d="M204.55,440.59c0,0,12.33-1.04,13.67,8.17c1.34,9.22,0,0,0,0l-10.52-1.2l-2.85-6.89"/>
	</g>
	<g>
		<path class="st8" d="M145.2,324.63h83.09c2.17,0,3.93-1.76,3.93-3.93l9.26-52.07c0-2.17-1.76-3.93-3.93-3.93h-83.09
			c-2.17,0-3.93,1.76-3.93,3.93l-9.26,52.07C141.27,322.87,143.03,324.63,145.2,324.63z"/>
		<path class="st3" d="M147.83,324.63h83.09c2.17,0,3.93-1.76,3.93-3.93l9.26-52.07c0-2.17-1.76-3.93-3.93-3.93h-83.09
			c-2.17,0-3.93,1.76-3.93,3.93l-9.26,52.07C143.9,322.87,145.66,324.63,147.83,324.63z"/>
		<path class="st2" d="M176.85,312.69h31.23c0.82,0,1.48-0.66,1.48-1.48l3.48-19.58c0-0.82-0.66-1.48-1.48-1.48h-31.23
			c-0.82,0-1.48,0.66-1.48,1.48l-3.48,19.58C175.38,312.03,176.04,312.69,176.85,312.69z"/>
		<path class="st3" d="M180.7,329.02h18.28l5.66-27.99c0.35-1.71-0.37-3.1-2.08-3.1h-13.1c-1.71,0-3.1,1.39-3.1,3.1L180.7,329.02z"
			/>
		<path class="st8" d="M202.7,328.79h-29.87c-0.89,0-1.61,0.72-1.61,1.61l0,0c0,0.89,0.72,1.61,1.61,1.61h29.87
			c0.89,0,1.61-0.72,1.61-1.61l0,0C204.3,329.51,203.58,328.79,202.7,328.79z"/>
	</g>
	<g>
		<rect x="39.83" y="191.44" class="st2" width="8.8" height="42.55"/>
		
			<rect x="61.79" y="203.08" transform="matrix(0.974 -0.2264 0.2264 0.974 -47.7852 20.414)" class="st2" width="6.59" height="30.82"/>
		
			<rect x="68.72" y="203.08" transform="matrix(0.974 -0.2264 0.2264 0.974 -47.6052 21.9828)" class="st3" width="6.59" height="30.82"/>
		
			<rect x="53.65" y="191.57" transform="matrix(0.974 -0.2264 0.2264 0.974 -46.7199 18.4233)" class="st3" width="6.59" height="42.55"/>
		<line class="st3" x1="95.23" y1="234.33" x2="32.75" y2="234.33"/>
	</g>
	<g>
		<rect x="408.7" y="191.44" class="st2" width="8.8" height="42.55"/>
		<rect x="452.29" y="191.44" class="st2" width="8.8" height="42.55"/>
		
			<rect x="430.67" y="203.08" transform="matrix(0.974 -0.2264 0.2264 0.974 -38.2032 103.945)" class="st2" width="6.59" height="30.82"/>
		
			<rect x="445.9" y="203.23" transform="matrix(0.9907 0.1361 -0.1361 0.9907 33.9304 -58.9589)" class="st3" width="4.4" height="30.82"/>
		
			<rect x="422.52" y="191.57" transform="matrix(0.974 -0.2264 0.2264 0.974 -37.1378 101.954)" class="st3" width="6.59" height="42.55"/>
		<line class="st3" x1="464.1" y1="234.33" x2="401.62" y2="234.33"/>
	</g>
	<g>
		<defs>
			<rect id="SVGID_00000121990148862976818960000018443731739259793828_" width="500" height="500"/>
		</defs>
		<clipPath id="SVGID_00000144311407287398606930000015932950615961246088_">
			<use xlink:href="#SVGID_00000121990148862976818960000018443731739259793828_"  style="overflow:visible;"/>
		</clipPath>
		<g style="clip-path:url(#SVGID_00000144311407287398606930000015932950615961246088_);">
			<path class="st3" d="M242,134.46c0,3.74,3.03,6.76,6.76,6.76c3.74,0,6.76-3.03,6.76-6.76c0-3.74-3.03-6.76-6.76-6.76
				C245.03,127.69,242,130.72,242,134.46z"/>
			<line class="st3" x1="249.08" y1="127.79" x2="249.08" y2="-21.54"/>
			<path class="st3" d="M252.1,88.22h-6.28c-1.72,0-3.11,1.39-3.11,3.11v28.65c0,1.72,1.39,3.11,3.11,3.11h6.28
				c1.72,0,3.11-1.39,3.11-3.11V91.32C255.21,89.61,253.82,88.22,252.1,88.22z"/>
			<path class="st8" d="M324.19,134.48H175.81c4.86-6.86,36.22-15.93,74.18-15.93C287.96,118.55,319.33,127.62,324.19,134.48z"/>
		</g>
	</g>
	<g>
		<path class="st2" d="M449.65,340.51H37.93c-2.41,0-4.36-1.95-4.36-4.36l0,0c0-2.41,1.95-4.36,4.36-4.36h411.72
			c2.41,0,4.36,1.95,4.36,4.36l0,0C454.01,338.56,452.06,340.51,449.65,340.51z"/>
		<g>
			<rect x="59.23" y="338.06" class="st2" width="4.46" height="124.67"/>
			<rect x="436.31" y="332.09" class="st2" width="4.46" height="124.67"/>
		</g>
	</g>
	<g>
		<path class="st8" d="M327.32,331.71h-50.13c-0.8,0-1.48-0.6-1.58-1.4l-3.87-30.95c-0.12-0.95,0.62-1.79,1.58-1.79h50.13
			c0.8,0,1.48,0.6,1.58,1.4l3.87,30.95C329.02,330.87,328.28,331.71,327.32,331.71z"/>
		<path class="st16" d="M301.7,317.15c-0.65,0.93-2.33,0.87-3.75-0.12c-1.42-1-2.04-2.55-1.38-3.48c0.65-0.93,2.33-0.87,3.75,0.12
			C301.73,314.66,302.35,316.22,301.7,317.15z"/>
		<path class="st8" d="M318.47,329.44h39.05c0.64,0,1.16,0.52,1.16,1.16l0,0c0,0.64-0.52,1.16-1.16,1.16h-39.05
			c-0.64,0-1.16-0.52-1.16-1.16l0,0C317.32,329.95,317.84,329.44,318.47,329.44z"/>
	</g>
	<g>
		<line class="st5" x1="231.32" y1="340.42" x2="173.31" y2="340.42"/>
		<line class="st5" x1="230.39" y1="331.78" x2="129.51" y2="331.78"/>
	</g>
</g>
</svg>
